# xmcd
# 
# Track frame offsets:
#     150
#     15796
#     30979
#     49161
#     77735
#     100939
#     114675
#     135513
#     151199
#     168247
#     189272
#     214231
#     229570
#     253092
# 
# Disc length: 3652
# 
# Revision: 1
# Processed by: cddbd v1.5.2PL0 Copyright (c) Steve Scherf et al.
# Submitted via: fre:ac v1.0.31
# 
DISCID=a20e420e
DTITLE=Gretchen Peters - The Essential Disc 2
DYEAR=2016
DGENRE=Country
TTITLE0=The Way You Move Me (Demo)
TTITLE1=Ring Around The Moon
TTITLE2=Pretty Things (Radio Edit)
TTITLE3=The Cruel Mother
TTITLE4=Woman On The Wheel (Live)
TTITLE5=When You Wish Upon A Star
TTITLE6=I Saw Your Light
TTITLE7=Love
TTITLE8=The Chill Of An Early Fall (Demo)
TTITLE9=Independence Day (Acoustic Version)
TTITLE10=Wild Horses (with Matraca Berg and Suzy Bogguss)
TTITLE11=The Answer (Work Tape)
TTITLE12=Blackbirds (with Ben Glover) (Work Tape)
TTITLE13=Five Minutes (Work Tape)
EXTD=
EXTT0=
EXTT1=
EXTT2=
EXTT3=
EXTT4=
EXTT5=
EXTT6=
EXTT7=
EXTT8=
EXTT9=
EXTT10=
EXTT11=
EXTT12=
EXTT13=
PLAYORDER=
